<svg xmlns="http://www.w3.org/2000/svg" xmlns:xlink="http://www.w3.org/1999/xlink" version="1.1" viewBox="0 0 172 172"><g fill="none" fill-rule="nonzero" stroke="none" stroke-width="1" stroke-linecap="butt" stroke-linejoin="miter" stroke-miterlimit="10" stroke-dashoffset="0" font-family="none" font-weight="none" font-size="none" text-anchor="none" style="mix-blend-mode: normal;"><path d="M0,172v-172h172v172z" fill="none"></path><g fill="#645a53"><path d="M86,17.2c-37.9948,0 -68.8,30.8052 -68.8,68.8c0,37.9948 30.8052,68.8 68.8,68.8c37.9948,0 68.8,-30.8052 68.8,-68.8c0,-37.9948 -30.8052,-68.8 -68.8,-68.8zM91.73333,120.4h-11.46667v-40.13333h11.46667zM86,65.93333c-4.7472,0 -8.6,-3.8528 -8.6,-8.6c0,-4.7472 3.8528,-8.6 8.6,-8.6c4.7472,0 8.6,3.8528 8.6,8.6c0,4.7472 -3.8528,8.6 -8.6,8.6z"></path></g></g></svg>