<svg width="15" height="15" viewBox="0 0 15 15" fill="none" xmlns="http://www.w3.org/2000/svg">
<path d="M14.2753 0.0529199C14.102 0.0570124 13.9373 0.129509 13.8173 0.25458L7.5 6.57184L1.18274 0.25458C1.05915 0.12731 0.889309 0.05549 0.71191 0.0554826C0.444754 0.0555473 0.204296 0.217543 0.103881 0.465109C0.0034651 0.712676 0.063132 0.996405 0.254757 1.18256L6.57202 7.49982L0.254757 13.8171C0.0833238 13.9817 0.0142679 14.2261 0.0742217 14.4561C0.134176 14.686 0.313771 14.8656 0.543744 14.9256C0.773719 14.9855 1.01814 14.9165 1.18274 14.7451L7.5 8.4278L13.8173 14.7451C13.9819 14.9165 14.2263 14.9855 14.4563 14.9256C14.6862 14.8656 14.8658 14.686 14.9258 14.4561C14.9857 14.2261 14.9167 13.9817 14.7452 13.8171L8.42798 7.49982L14.7452 1.18256C14.9406 0.995085 15.0007 0.706914 14.8967 0.456948C14.7927 0.206982 14.5459 0.0465247 14.2753 0.0529187L14.2753 0.0529199Z" fill="#645a53"/>
</svg>
