<svg width="116" height="138" viewBox="0 0 116 138" fill="none" xmlns="http://www.w3.org/2000/svg">
<path d="M71.4518 0.958664C70.5462 0.888654 69.6163 0.915874 68.6803 1.05664L5.24414 10.5749C2.61462 10.9698 0.668922 13.2279 0.666992 15.8869V122.113C0.668922 124.772 2.61461 127.03 5.24414 127.425L68.6803 136.943C75.5515 137.972 81.8809 133.009 82.8807 126.333H102.792C109.654 126.333 115.334 120.654 115.334 113.792V24.2083C115.334 17.3464 109.654 11.6667 102.792 11.6667H82.8807C82.0204 5.89835 77.2016 1.40312 71.4518 0.958654L71.4518 0.958664ZM70.276 11.6877C71.4604 11.5095 72.3337 12.267 72.3337 13.4583V17.0417V120.958V124.535C72.3337 125.729 71.4578 126.489 70.276 126.312L11.417 117.48V20.52L70.276 11.6877ZM83.0836 22.4167H102.792C103.849 22.4167 104.584 23.1511 104.584 24.2083V113.792C104.584 114.849 103.849 115.583 102.792 115.583H83.0836V22.4167ZM58.0003 65.4167C54.0423 65.4167 50.8336 68.6253 50.8336 72.5833C50.8336 76.5414 54.0423 79.75 58.0003 79.75C61.9584 79.75 65.167 76.5414 65.167 72.5833C65.167 68.6253 61.9584 65.4167 58.0003 65.4167Z" fill="#645A53"/>
</svg>
