<svg width="41" height="37" viewBox="0 0 41 37" fill="none" xmlns="http://www.w3.org/2000/svg">
<path d="M15.7284 0H41C41 5.21524 37.1121 8.28095 35.1681 8.28095H15.7284C12.9009 8.28095 7.95259 12.0867 7.95259 18.8524C7.95259 25.6181 13.431 29.0714 16.6121 29.0714H33.931C38.5965 29.0714 40.5876 34.3571 41 37H15.1983C10.25 37 0 31.1152 0 18.8524C0 6.58952 10.7802 0 15.7284 0Z" fill="#FD4646"/>
<path d="M21.5603 14.6238H41C41 19.2752 36.7586 22.3762 34.6379 22.3762H15.7284C15.7284 17.8657 19.4397 14.6238 21.5603 14.6238Z" fill="#FD4646"/>
</svg>
