<svg xmlns="http://www.w3.org/2000/svg" xmlns:xlink="http://www.w3.org/1999/xlink" version="1.1" viewBox="0 0 172 172"><g fill="none" fill-rule="nonzero" stroke="none" stroke-width="1" stroke-linecap="butt" stroke-linejoin="miter" stroke-miterlimit="10" stroke-dashoffset="0" font-family="none" font-weight="none" font-size="none" text-anchor="none" style="mix-blend-mode: normal;"><path d="M0,172v-172h172v172z" fill="none"></path><g fill="#645a53"><path d="M45.86667,17.2c-9.50013,0 -17.2,7.69987 -17.2,17.2v103.2c0,9.48293 7.71707,17.2 17.2,17.2h39.83099c-1.80027,-3.60627 -3.19804,-7.44187 -4.10964,-11.46667h-35.72136c-3.15907,0 -5.73333,-2.57427 -5.73333,-5.73333c0,-3.15907 2.57427,-5.73333 5.73333,-5.73333h34.4c0,-28.5004 23.0996,-51.6 51.6,-51.6c3.94453,0 7.7744,0.47856 11.46667,1.32136v-52.92136c0,-6.33533 -5.13133,-11.46667 -11.46667,-11.46667zM131.86667,91.73333c-22.16507,0 -40.13333,17.96827 -40.13333,40.13333c0,22.16507 17.96827,40.13333 40.13333,40.13333c22.16507,0 40.13333,-17.96827 40.13333,-40.13333c0,-22.16507 -17.96827,-40.13333 -40.13333,-40.13333zM131.86667,108.93333c3.1648,0 5.73333,2.5628 5.73333,5.73333v11.46667h11.46667c3.1648,0 5.73333,2.5628 5.73333,5.73333c0,3.17053 -2.56853,5.73333 -5.73333,5.73333h-11.46667v11.46667c0,3.17053 -2.56853,5.73333 -5.73333,5.73333c-3.1648,0 -5.73333,-2.5628 -5.73333,-5.73333v-11.46667h-11.46667c-3.1648,0 -5.73333,-2.5628 -5.73333,-5.73333c0,-3.17053 2.56853,-5.73333 5.73333,-5.73333h11.46667v-11.46667c0,-3.17053 2.56853,-5.73333 5.73333,-5.73333z"></path></g></g></svg>