<svg xmlns="http://www.w3.org/2000/svg" xmlns:xlink="http://www.w3.org/1999/xlink" version="1.1" viewBox="0 0 172 172"><g fill="none" fill-rule="nonzero" stroke="none" stroke-width="1" stroke-linecap="butt" stroke-linejoin="miter" stroke-miterlimit="10" stroke-dasharray="true" stroke-dashoffset="0" font-family="none" font-weight="none" font-size="none" text-anchor="none" style="mix-blend-mode: normal;"><path d="M0,172v-172h172v172z" fill="none"></path><g fill="#ffffff"><path d="M86,14.33333c-39.51595,0 -71.66667,32.15071 -71.66667,71.66667c0,39.51595 32.15071,71.66667 71.66667,71.66667c22.7504,0 43.05602,-10.66719 56.17155,-27.23193c1.20166,-1.50449 1.50686,-3.53679 0.80011,-5.32787c-0.70675,-1.79108 -2.31749,-3.06737 -4.22271,-3.34591c-1.90523,-0.27854 -3.81392,0.48322 -5.00383,1.99702c-11.16514,14.10142 -28.34835,23.15869 -47.74512,23.15869c-33.70588,0 -60.91667,-27.21079 -60.91667,-60.91667c0,-33.70588 27.21079,-60.91667 60.91667,-60.91667c19.39677,0 36.57998,9.05727 47.74512,23.15869c1.18991,1.5138 3.0986,2.27556 5.00383,1.99702c1.90523,-0.27854 3.51597,-1.55482 4.22271,-3.34591c0.70675,-1.79108 0.40155,-3.82338 -0.80011,-5.32787c-13.11553,-16.56474 -33.42115,-27.23193 -56.17155,-27.23193zM130.73568,59.06901c-2.18814,0.00053 -4.1576,1.32735 -4.98006,3.35504c-0.82245,2.0277 -0.33375,4.35156 1.23575,5.87624l12.31771,12.31771l-73.01042,-0.06299c-1.93831,-0.02982 -3.74253,0.98629 -4.72184,2.65927c-0.97932,1.67298 -0.98201,3.74365 -0.00706,5.41918c0.97496,1.67552 2.77653,2.69633 4.7149,2.67156l73.03841,0.06299l-12.3317,12.3317c-1.40412,1.34815 -1.96971,3.35005 -1.47866,5.23364c0.49105,1.88359 1.96202,3.35456 3.84561,3.84561c1.88359,0.49105 3.88549,-0.07455 5.23364,-1.47866l21.5,-21.5c2.09823,-2.0991 2.09823,-5.50149 0,-7.60059l-21.5,-21.5c-1.01222,-1.0424 -2.4033,-1.63064 -3.85628,-1.6307z"></path></g></g></svg>